# xmcd
#
# Track frame offsets:
#	150
#	13199
#	27655
#	41840
#	59895
#	73214
#	91917
#	104347
#	118638
#	135417
#	148047
#
# Disc length: 2240 seconds
#
# Revision: 0
# Processed by: cddbd v1.5.1PL2 Copyright (c) Steve Scherf et al.
# Submitted via: EasyCDDAExtractor 4.6.9.1
#
DISCID=a808be0b
DTITLE=Joe Nichols - III
DYEAR=2005
DGENRE=Country
TTITLE0=Size Matters (Someday)
TTITLE1=Freedom Feels Like Lonely
TTITLE2=Tequila Makes Her Clothes Fall Off
TTITLE3=Talk Me Out Of Tampa
TTITLE4=That's What Love'll Get You
TTITLE5=I'll Wait For you
TTITLE6=Should I Come Home (Or Should I Go Crazy)
TTITLE7=My Old Friend The Blues
TTITLE8=As Country As She Gets
TTITLE9=Honky Tonk Girl
TTITLE10=Just A Little More
EXTD=
EXTT0=
EXTT1=
EXTT2=
EXTT3=
EXTT4=
EXTT5=
EXTT6=
EXTT7=
EXTT8=
EXTT9=
EXTT10=
PLAYORDER=
